<svg width="1024" height="768" xmlns="http://www.w3.org/2000/svg">
 <g>
  <title>Layer 1</title>
  <g id="Randgebäude">
   <path id="svg_634" d="m377.79999,121.5h-30.19998v-26.7h-10.70001h-15.5c-0.10001,-12.60001 -10.39999,-22.8 -23,-22.8s-22.79999,10.2 -23,22.7h-11.89999h-10.5v26.7h-30.2v78.8h30.2v98.2h-30.2v78.80002h30.2v41.39999v74.19998h74.29999v-74.19998h9.70001v-218.40001h40.89999v-78.7l-0.10001,0z" fill="#536D97"/>
   <path id="svg_635" d="m191.5,594.5h-19.7c0,7.20001 -4.3,16.5 -12.2,16.5c-5.60001,0 -28.60001,0 -28.60001,0v10.20001h-73.5l23,-94.20001l14,0l13.8,-47.60001h83.2v115.10001l0,0z" fill="#536D97"/>
  </g>
  <g id="Flur">
   <g id="svg_636">
    <polygon id="svg_637" points="786.7,121.8 786.7,185.9 843.9,185.9 843.9,479.5 809.1,479.5 809.1,516.6 653.4,516.6     653.4,421.9 496.1,421.9 496.1,516.6 347.6,516.6 347.6,479.2 216.3,479.2 216.3,607.2 347.6,607.2 347.6,580.4 874.4,580.4     874.4,553.4 927.5,553.4 927.5,512.7 927.5,479.5 927.5,185.9 927.5,140.5 927.5,121.8   " fill="#1A3C74"/>
    <path id="svg_638" d="m925.5,123.8v16.7v45.40001v293.59999v33.20001v38.70001h-51h-2v2v25h-524.89999h-2v2v24.79999h-127.3v-124h127.3v35.40002v2h2h148.60001h2v-2v-92.70001h153.29999v92.70001v2h2h155.70001h2v-2v-35.20001h32.79999h2v-2v-293.50003v-2h-2h-55.20001v-60.00001h136.70001m2,-2.09998h-140.79999v64h57.20001v293.60002h-34.79999v37.20001h-155.70001v-94.70001h-157.30002v94.70001h-148.5v-37.40002h-131.3v127.90002h131.3v-26.80005h526.89999v-27h53v-40.69995v-33.20001v-293.50003v-45.40001v-18.69998l0,0z" fill="#FFFFFF"/>
   </g>
  </g>
  <g id="Räume">
   <g id="svg_639">
    <rect id="svg_640" height="33.3" width="32.5" fill="#536D97" y="118.4" x="894.9"/>
    <path id="svg_641" d="m925.29999,120.4v29.3h-28.5v-29.3h28.5m2,-2h-32.5v33.3h32.5v-33.3l0,0z" fill="#FFFFFF"/>
   </g>
   <g id="svg_642">
    <rect id="svg_643" height="25.5" width="59.1" fill="#536D97" y="149.7" x="868.2"/>
    <path id="svg_644" d="m925.29999,151.7v21.5h-55.09998v-21.5h55.09998m2,-2h-59.09998v25.5h59.09998v-25.5l0,0z" fill="#FFFFFF"/>
   </g>
   <g id="svg_645">
    <rect id="svg_646" height="21.9" width="59.1" fill="#536D97" y="173.2" x="868.2"/>
    <path id="svg_647" d="m925.29999,175.2v17.90001h-55.09998v-17.90001h55.09998m2,-2h-59.09998v21.90001h59.09998v-21.90001l0,0z" fill="#FFFFFF"/>
   </g>
   <g id="svg_648">
    <rect id="svg_649" height="86.9" width="59.1" fill="#536D97" y="193.1" x="868.2"/>
    <path id="svg_650" d="m925.29999,195.10001v82.89999h-55.09998v-82.89999h55.09998m2,-2h-59.09998v86.89999h59.09998v-86.89999l0,0z" fill="#FFFFFF"/>
   </g>
   <g id="svg_651">
    <rect id="svg_652" height="99.9" width="59.1" fill="#536D97" y="278" x="868.2"/>
    <path id="svg_653" d="m925.29999,280v95.89999h-55.09998v-95.89999h55.09998m2,-2h-59.09998v99.89999h59.09998v-99.89999l0,0z" fill="#FFFFFF"/>
   </g>
   <g id="svg_654">
    <rect id="svg_655" height="21.6" width="59.1" fill="#536D97" y="375.9" x="868.2"/>
    <path id="svg_656" d="m925.29999,377.89999v17.60001h-55.09998v-17.60001h55.09998m2,-2h-59.09998v21.60001h59.09998v-21.60001l0,0z" fill="#FFFFFF"/>
   </g>
   <g id="svg_657">
    <rect id="svg_658" height="87.2" width="59.1" fill="#536D97" y="395.6" x="868.2"/>
    <path id="svg_659" d="m925.29999,397.60001v83.19998h-55.09998v-83.19998h55.09998m2,-2h-59.09998v87.19998h59.09998v-87.19998l0,0z" fill="#FFFFFF"/>
   </g>
   <g id="svg_660">
    <rect id="svg_661" height="48" width="59.1" fill="#536D97" y="480.9" x="868.2"/>
    <path id="svg_662" d="m925.29999,482.89999v43.99997h-55.09998v-43.99997h55.09998m2,-2h-59.09998v47.99997h59.09998v-47.99997l0,0z" fill="#FFFFFF"/>
   </g>
   <g id="svg_663">
    <rect id="svg_664" height="53" width="26.2" fill="#536D97" y="551.3" x="891.6"/>
    <path id="svg_665" d="m915.79999,553.29999v49h-22.20001v-49h22.20001m2,-2h-26.20001v53h26.20001v-53l0,0z" fill="#FFFFFF"/>
   </g>
   <g id="svg_666">
    <rect id="svg_667" height="53" width="26.2" fill="#536D97" y="551.3" x="867.3"/>
    <path id="svg_668" d="m891.5,553.29999v49h-22.20001v-49h22.20001m2,-2h-26.20001v53h26.20001v-53l0,0z" fill="#FFFFFF"/>
   </g>
   <g id="svg_669">
    <rect id="svg_670" height="53" width="76.9" fill="#536D97" y="551.3" x="715.2"/>
    <path id="svg_671" d="m790.09998,553.29999v49h-72.90002v-49h72.90002m2,-2h-76.90002v53h76.90002v-53l0,0z" fill="#FFFFFF"/>
   </g>
   <g id="svg_672">
    <rect id="svg_673" height="42.5" width="25.5" fill="#536D97" y="551.3" x="691.7"/>
    <path id="svg_674" d="m715.20001,553.29999v38.5h-21.5v-38.5h21.5m2,-2h-25.5v42.5h25.5v-42.5l0,0z" fill="#FFFFFF"/>
   </g>
   <g id="svg_675">
    <rect id="svg_676" height="53.1" width="95.5" fill="#536D97" y="540.7" x="598.1"/>
    <path id="svg_677" d="m691.59998,542.70001v49.09998h-91.5v-49.09998h91.5m2,-2h-95.5v53.09998h95.5v-53.09998l0,0z" fill="#FFFFFF"/>
   </g>
   <g id="svg_678">
    <rect id="svg_679" height="53.1" width="26" fill="#536D97" y="540.7" x="574.1"/>
    <path id="svg_680" d="m598,542.70001v49.09998h-22v-49.09998h22m2,-2h-26v53.09998h26v-53.09998l0,0z" fill="#FFFFFF"/>
   </g>
   <g id="svg_681">
    <rect id="svg_682" height="53.1" width="22.4" fill="#536D97" y="540.7" x="553.6"/>
    <path id="svg_683" d="m574,542.70001v49.09998h-18.40002v-49.09998h18.40002m2,-2h-22.40002v53.09998h22.40002v-53.09998l0,0z" fill="#FFFFFF"/>
   </g>
   <g id="svg_684">
    <rect id="svg_685" height="53.1" width="99.2" fill="#536D97" y="540.7" x="456.4"/>
    <path id="svg_686" d="m553.59998,542.70001v49.09998h-95.19998v-49.09998h95.19998m2,-2h-99.19998v53.09998h99.19998v-53.09998l0,0z" fill="#FFFFFF"/>
   </g>
   <g id="svg_687">
    <rect id="svg_688" height="42.5" width="22.7" fill="#536D97" y="551.3" x="435.7"/>
    <path id="svg_689" d="m456.39999,553.29999v38.5h-18.70001v-38.5h18.70001m2,-2h-22.70001v42.5h22.70001v-42.5l0,0z" fill="#FFFFFF"/>
   </g>
   <g id="svg_690">
    <rect id="svg_691" height="55.9" width="25.7" fill="#536D97" y="551.3" x="412"/>
    <path id="svg_692" d="m435.70001,553.29999v51.90002h-21.70001v-51.90002h21.70001m2,-2h-25.70001v55.90002h25.70001v-55.90002l0,0z" fill="#FFFFFF"/>
   </g>
   <g id="svg_693">
    <rect id="svg_694" height="55.9" width="42" fill="#536D97" y="551.3" x="372"/>
    <path id="svg_695" d="m412,553.29999v51.90002h-38v-51.90002h38m2,-2h-42v55.90002h42v-55.90002l0,0z" fill="#FFFFFF"/>
   </g>
   <g id="svg_696">
    <rect id="svg_697" height="55.9" width="72.9" fill="#536D97" y="551.3" x="232.8"/>
    <path id="svg_698" d="m303.79999,553.29999v51.90002h-68.89999v-51.90002h68.89999m2,-2h-72.89999v55.90002h72.89999v-55.90002l0,0z" fill="#FFFFFF"/>
   </g>
   <g id="svg_699">
    <rect id="svg_700" height="42.3" width="18.6" fill="#536D97" y="551.3" x="216.2"/>
    <path id="svg_701" d="m232.8,553.29999v38.29999h-14.60001v-38.29999h14.60001m2,-2h-18.60001v42.29999h18.60001v-42.29999l0,0z" fill="#FFFFFF"/>
   </g>
   <g id="svg_702">
    <rect id="svg_703" height="49.2" width="39.4" fill="#536D97" y="479.3" x="382.1"/>
    <path id="svg_704" d="m419.5,481.29999v45.20001h-35.39999v-45.20001h35.39999m2,-2h-39.39999v49.20001h39.39999v-49.20001l0,0z" fill="#FFFFFF"/>
   </g>
   <g id="svg_705">
    <rect id="svg_706" height="96.1" width="49.7" fill="#536D97" y="422.6" x="496.2"/>
    <path id="svg_707" d="m543.90002,424.60001v92.10001h-45.70001v-92.10001h45.70001m2,-2h-49.70001v96.10001h49.70001v-96.10001l0,0z" fill="#FFFFFF"/>
   </g>
   <g id="svg_708">
    <rect id="svg_709" height="32.9" width="25.9" fill="#536D97" y="391.6" x="496.2"/>
    <path id="svg_710" d="m520.09998,393.60001v28.89999h-21.89999v-28.89999h21.89999m2,-2h-25.89999v32.89999h25.89999v-32.89999l0,0z" fill="#FFFFFF"/>
   </g>
   <g id="svg_711">
    <rect id="svg_712" height="32.9" width="25.9" fill="#536D97" y="391.6" x="631.3"/>
    <path id="svg_713" d="m655.09998,393.60001v28.89999h-21.90002v-28.89999h21.90002m2,-2h-25.90002v32.89999h25.90002v-32.89999l0,0z" fill="#FFFFFF"/>
   </g>
   <g id="svg_714">
    <rect id="svg_715" height="32.9" width="25.3" fill="#536D97" y="391.6" x="564.1"/>
    <path id="svg_716" d="m587.40002,393.60001v28.89999h-21.29999v-28.89999h21.29999m2,-2h-25.29999v32.89999h25.29999v-32.89999l0,0z" fill="#FFFFFF"/>
   </g>
   <g id="svg_717">
    <rect id="svg_718" height="71.9" width="25.6" fill="#536D97" y="446.7" x="543.9"/>
    <path id="svg_719" d="m567.5,448.70001v67.90002h-21.59998v-67.90002h21.59998m2,-2h-25.59998v71.90002h25.59998v-71.90002l0,0z" fill="#FFFFFF"/>
   </g>
   <g id="svg_720">
    <rect id="svg_721" height="96.1" width="49.7" fill="#536D97" y="422.6" x="607.4"/>
    <path id="svg_722" d="m655.09998,424.60001v92.10001h-45.70001v-92.10001h45.70001m2,-2h-49.70001v96.10001h49.70001v-96.10001l0,0z" fill="#FFFFFF"/>
   </g>
   <g id="svg_723">
    <rect id="svg_724" height="49.2" width="42.2" fill="#536D97" y="479.3" x="341.8"/>
    <path id="svg_725" d="m382,481.29999v45.20001h-38.20001v-45.20001h38.20001m2,-2h-42.20001v49.20001h42.20001v-49.20001l0,0z" fill="#FFFFFF"/>
   </g>
   <g id="svg_726">
    <rect id="svg_727" height="17.1" width="23.9" fill="#536D97" y="479.3" x="229.1"/>
    <path id="svg_728" d="m251,481.29999v13.10001h-19.89999v-13.10001h19.89999m2,-2h-23.89999v17.10001h23.89999v-17.10001l0,0z" fill="#FFFFFF"/>
   </g>
   <g id="svg_729">
    <rect id="svg_730" height="9.6" width="23.9" fill="#536D97" y="499.8" x="229.1"/>
    <path id="svg_731" d="m251,501.79999v5.60001h-19.89999v-5.60001h19.89999m2,-2h-23.89999v9.60001h23.89999v-9.60001l0,0z" fill="#FFFFFF"/>
   </g>
   <g id="svg_732">
    <rect id="svg_733" height="17.1" width="23.9" fill="#536D97" y="513.1" x="229.1"/>
    <path id="svg_734" d="m251,515.09998v13.09998h-19.89999v-13.09998h19.89999m2,-2h-23.89999v17.09998h23.89999v-17.09998l0,0z" fill="#FFFFFF"/>
   </g>
   <g id="svg_735">
    <rect id="svg_736" height="39.1" width="25.4" fill="#536D97" y="479.5" x="715.3"/>
    <path id="svg_737" d="m738.79999,481.5v35.09998h-21.40002v-35.09998h21.40002m2,-2h-25.40002v39.09998h25.40002v-39.09998l0,0z" fill="#FFFFFF"/>
   </g>
   <g id="svg_738">
    <rect id="svg_739" height="49.2" width="25.4" fill="#536D97" y="479.5" x="738.8"/>
    <path id="svg_740" d="m762.20001,481.5v45.20001h-21.40002v-45.20001h21.40002m2,-2h-25.40002v49.20001h25.40002v-49.20001l0,0z" fill="#FFFFFF"/>
   </g>
   <g id="svg_741">
    <rect id="svg_742" height="49.2" width="25.4" fill="#536D97" y="479.5" x="762.2"/>
    <path id="svg_743" d="m785.59998,481.5v45.20001h-21.40002v-45.20001h21.40002m2,-2h-25.40002v49.20001h25.40002v-49.20001l0,0z" fill="#FFFFFF"/>
   </g>
   <g id="svg_744">
    <rect id="svg_745" height="49.2" width="25.4" fill="#536D97" y="479.5" x="785.6"/>
    <path id="svg_746" d="m809.09998,481.5v45.20001h-21.40002v-45.20001h21.40002m2,-2h-25.40002v49.20001h25.40002v-49.20001l0,0z" fill="#FFFFFF"/>
   </g>
   <g id="svg_747">
    <rect id="svg_748" height="29" width="32.8" fill="#536D97" y="551.2" x="341.3"/>
    <path id="svg_749" d="m372,553.20001v25h-28.79999v-25h28.79999m2,-2h-32.79999v29h32.79999v-29l0,0z" fill="#FFFFFF"/>
   </g>
   <g id="svg_750">
    <rect id="svg_751" height="29" width="21.7" fill="#536D97" y="551.2" x="321.5"/>
    <path id="svg_752" d="m341.20001,553.20001v25h-17.70001v-25h17.70001m2,-2h-21.70001v29h21.70001v-29l0,0z" fill="#FFFFFF"/>
   </g>
   <g id="svg_753">
    <rect id="svg_754" height="45.4" width="59.1" fill="#536D97" y="149.8" x="786.6"/>
    <path id="svg_755" d="m843.70001,151.8v41.39999h-55.09998v-41.39999h55.09998m2,-2h-59.09998v45.39999h59.09998v-45.39999l0,0z" fill="#FFFFFF"/>
   </g>
   <g id="svg_756">
    <rect id="svg_757" height="126.8" width="46.1" fill="#536D97" y="261.2" x="799.6"/>
    <path id="svg_758" d="m843.70001,263.20001v122.79999h-42.09998v-122.79999h42.09998m2,-2h-46.09998v126.79999h46.09998v-126.79999l0,0z" fill="#FFFFFF"/>
   </g>
   <g id="svg_759">
    <rect id="svg_760" height="25.5" width="46.1" fill="#536D97" y="386" x="799.6"/>
    <path id="svg_761" d="m843.70001,388v21.5h-42.09998v-21.5h42.09998m2,-2h-46.09998v25.5h46.09998v-25.5l0,0z" fill="#FFFFFF"/>
   </g>
   <g id="svg_762">
    <polygon id="svg_763" points="438.2,518.7 419.5,518.7 419.5,505.6 408.8,505.6 408.8,479.3 438.2,479.3   " fill="#536D97"/>
    <path id="svg_764" d="m436.20001,481.29999v35.40002h-14.60001v-11.10004v-2h-2h-8.69998v-22.29999h25.29999m2,-2h-29.39999v26.29999h10.69998v13.10004h18.60001v-39.40002l0.10001,0z" fill="#FFFFFF"/>
   </g>
   <g id="svg_765">
    <path id="svg_766" d="m566,391.60001c0,-12.69998 -10.29999,-23 -23,-23s-23,10.30002 -23,23c0,0 0,0 0,0h0v32.89999h46l0,-32.89999l0,0c0,0 0,0 0,0z" fill="#536D97"/>
    <path id="svg_767" d="m543,370.60001c11.59998,0 21,9.39999 21,20.89999l0,0.10001l0,0v30.89999h-42l0,-30.89999l0,-0.10001l0,0c0.09998,-11.5 9.5,-20.89999 21,-20.89999m0,-2c-12.70001,0 -23,10.30002 -23,23c0,0 0,0 0,0h0v32.89999h46v-32.89999h0c0,0 0,0 0,0c0,-12.70001 -10.29999,-23 -23,-23l0,0z" fill="#FFFFFF"/>
   </g>
   <g id="svg_768">
    <path id="svg_769" d="m633.29999,391.60001c0,-12.69998 -10.29999,-23 -23,-23s-23,10.30002 -23,23c0,0 0,0 0,0h0v32.89999h45.90002l0.09998,-32.89999l0,0c0,0 0,0 0,0z" fill="#536D97"/>
    <path id="svg_770" d="m610.40002,370.60001c11.59998,0 21,9.39999 21,20.89999l0,0.10001l0,0v30.89999h-41.90002l0,-30.89999l0,-0.10001l0,0c-0.09998,-11.5 9.29999,-20.89999 20.90002,-20.89999m0,-2c-12.70001,0 -23,10.30002 -23,23c0,0 0,0 0,0h0v32.89999h45.90002v-32.89999h0c0,0 0,0 0,0c-0.00006,-12.70001 -10.30005,-23 -22.90002,-23l0,0z" fill="#FFFFFF"/>
   </g>
   <g id="svg_771">
    <path id="svg_772" d="m869.20001,551.29999h-79.10004v20h0v32.90002h0c0,0 0,0 0,0c0,12.70001 10.30005,23 23,23s23,-10.29999 23,-23c0,0 0,0 0,0h33.20001v-52.90002l-0.09998,0z" fill="#536D97"/>
    <path id="svg_773" d="m867.20001,553.29999v49h-31.20001h-2l0,2l0,0c0,11.5 -9.40002,20.90002 -21,20.90002c-11.59998,0 -21,-9.40002 -21,-20.90002l0,-0.09998l0,0v-30.90002h0v-2v-18h75.20001m2,-2h-79.09998v20h0v32.90002h0c0,0 0,0 0,0c0,12.69995 10.29999,23 23,23s23,-10.30005 23,-23c0,0 0,0 0,0h33.19995v-52.90002l-0.09998,0z" fill="#FFFFFF"/>
   </g>
   <g id="svg_774">
    <polygon id="svg_775" points="816.8,95.5 816.8,134.5 868.2,134.5 868.2,151.7 896.8,151.7 896.8,95.5   " fill="#536D97"/>
    <path id="svg_776" d="m894.79999,97.5v52.2h-24.59998v-15.2v-2h-2h-49.40002v-35h76m2,-2h-80v39h51.40002v17.2h28.59998v-56.2l0,0z" fill="#FFFFFF"/>
   </g>
  </g>
  <g id="Treppen">
   <path id="svg_777" d="m339.79999,515.5h-8v-2h8v2l0,0zm0,-4h-8v-2h8v2l0,0zm0,-4h-8v-2h8v2l0,0zm0,-4h-8v-2h8v2l0,0zm0,-4h-8v-2h8v2l0,0zm0,-4h-8v-2h8v2l0,0z" fill="#FFFFFF"/>
   <path id="svg_778" d="m238.2,545.79999h-2v-8h2v8l0,0zm-4,0h-2v-8h2v8l0,0zm-4,0h-2v-8h2v8l0,0zm-4,0h-2v-8h2v8l0,0zm-4,0h-2v-8h2v8l0,0zm-4,0h-2v-8h2v8l0,0z" fill="#FFFFFF"/>
   <path id="svg_779" d="m347.5,596.90002h-2v-8h2v8l0,0zm-4,0h-2v-8h2v8l0,0zm-4,0h-2v-8h2v8l0,0zm-4,0h-2v-8h2v8l0,0zm-4,0h-2v-8h2v8l0,0zm-4,0h-2v-8h2v8l0,0z" fill="#FFFFFF"/>
   <path id="svg_780" d="m329.89999,525.5h-2v-8h2v8l0,0zm-4,0h-2v-8h2v8l0,0zm-4,0h-2v-8h2v8l0,0zm-4,0h-2v-8h2v8l0,0zm-4,0h-2v-8h2v8l0,0zm-4,0h-2v-8h2v8l0,0z" fill="#FFFFFF"/>
   <path id="svg_781" d="m846.29999,525.5h-2v-8h2v8l0,0zm-4,0h-2v-8h2v8l0,0zm-4,0h-2v-8h2v8l0,0zm-4,0h-2v-8h2v8l0,0zm-4,0h-2v-8h2v8l0,0zm-4,0h-2v-8h2v8l0,0z" fill="#FFFFFF"/>
   <path id="svg_782" d="m927.40002,545.79999h-2v-8h2v8l0,0zm-4,0h-2v-8h2v8l0,0zm-4,0h-2v-8h2v8l0,0zm-4,0h-2v-8h2v8l0,0zm-4,0h-2v-8h2v8l0,0zm-4,0h-2v-8h2v8l0,0z" fill="#FFFFFF"/>
   <path id="svg_783" d="m808.70001,147.3h-2v-8h2v8l0,0zm-4,0h-2v-8h2v8l0,0zm-4,0h-2v-8h2v8l0,0zm-4,0h-2v-8h2v8l0,0zm-4,0h-2v-8h2v8l0,0zm-4,0h-2v-8h2v8l0,0z" fill="#FFFFFF"/>
   <path id="svg_784" d="m808.70001,134.10001h-2v-8.00001h2v8.00001l0,0zm-4,0h-2v-8.00001h2v8.00001l0,0zm-4,0h-2v-8.00001h2v8.00001l0,0zm-4,0h-2v-8.00001h2v8.00001l0,0zm-4,0h-2v-8.00001h2v8.00001l0,0zm-4,0h-2v-8.00001h2v8.00001l0,0z" fill="#FFFFFF"/>
   <path id="svg_785" d="m846.29999,491.79999h-2v-8h2v8l0,0zm-4,0h-2v-8h2v8l0,0zm-4,0h-2v-8h2v8l0,0zm-4,0h-2v-8h2v8l0,0zm-4,0h-2v-8h2v8l0,0zm-4,0h-2v-8h2v8l0,0z" fill="#FFFFFF"/>
   <path id="svg_786" d="m822.40002,516h-8v-2h8v2l0,0zm0,-4h-8v-2h8v2l0,0zm0,-4h-8v-2h8v2l0,0zm0,-4h-8v-2h8v2l0,0zm0,-4h-8v-2h8v2l0,0zm0,-4h-8v-2h8v2l0,0z" fill="#FFFFFF"/>
  </g>
  <g id="Ebene_8">
   <g id="svg_787">
    <path id="svg_788" d="m891.70001,235h-5.29999v5.10001h6.09998v1.5h-8.09998v-14.20001h8v1.5h-6.10004v4.60001h5.29999v1.5l0.10004,0z" fill="#FFFFFF"/>
    <path id="svg_789" d="m898.70001,227.2c0.40002,0 0.79999,0.10001 1.20001,0.2s0.79999,0.3 1.09998,0.40001l-0.39996,1.5c-0.30005,-0.2 -0.60004,-0.3 -0.90002,-0.40001s-0.59998,-0.09999 -1,-0.09999c-0.79999,0 -1.40002,0.39999 -1.90002,1.09999s-0.69995,1.8 -0.69995,3.10001v0.39999c0.29999,-0.39999 0.69995,-0.7 1.19995,-0.89999s0.90002,-0.3 1.5,-0.3c1.10004,0 1.90002,0.40001 2.5,1.3s0.90002,2 0.90002,3.39999c0,1.40001 -0.40002,2.60001 -1.09998,3.5s-1.70001,1.40001 -2.80005,1.40001c-1.19995,0 -2.19995,-0.5 -3,-1.5s-1.19995,-2.40001 -1.19995,-4.2v-3.10001c0,-1.8 0.39996,-3.2 1.29999,-4.3s1.89996,-1.5 3.29999,-1.5zm-0.60004,6.40001c-0.5,0 -0.90002,0.10001 -1.29999,0.40001c-0.40002,0.2 -0.60004,0.59999 -0.79999,1v1.29999c0,1.3 0.19995,2.3 0.59998,3s0.90002,1.10001 1.59998,1.10001c0.60004,0 1.10004,-0.3 1.40002,-1s0.5,-1.5 0.5,-2.39999c0,-1 -0.20001,-1.70001 -0.5,-2.40001c-0.39996,-0.70001 -0.79999,-1 -1.5,-1z" fill="#FFFFFF"/>
    <path id="svg_790" d="m910.5,236.7h1.5v1.5h-1.5v3.3h-2v-3.3h-5.20001l-0.09998,-1.09999l5.20001,-9.8h2v9.39999l0.09998,0zm-5.20001,0h3.29999v-6.5l-0.09998,0l-0.20001,0.40001l-3,6.09999z" fill="#FFFFFF"/>
   </g>
   <g id="svg_791">
    <path id="svg_792" d="m891.70001,325.79999h-5.29999v5.10001h6.09998v1.5h-8.09998v-14.19998h8v1.5h-6.10004v4.59998h5.29999v1.5l0.10004,0z" fill="#FFFFFF"/>
    <path id="svg_793" d="m898.70001,318c0.40002,0 0.79999,0.10001 1.20001,0.20001s0.79999,0.29999 1.09998,0.39999l-0.39996,1.5c-0.30005,-0.20001 -0.60004,-0.30002 -0.90002,-0.39999s-0.59998,-0.10001 -1,-0.10001c-0.79999,0 -1.40002,0.39999 -1.90002,1.10001s-0.69995,1.79999 -0.69995,3.09998v0.40002c0.29999,-0.40002 0.69995,-0.70001 1.19995,-0.90002s0.90002,-0.29999 1.5,-0.29999c1.10004,0 1.90002,0.39999 2.5,1.29999s0.90002,2 0.90002,3.40002c0,1.39999 -0.40002,2.59998 -1.09998,3.5s-1.70001,1.39999 -2.80005,1.39999c-1.19995,0 -2.19995,-0.5 -3,-1.5s-1.19995,-2.39999 -1.19995,-4.20001v-3.10001c0,-1.79999 0.39996,-3.19998 1.29999,-4.29999s1.89996,-1.5 3.29999,-1.5zm-0.60004,6.39999c-0.5,0 -0.90002,0.10001 -1.29999,0.39999c-0.40002,0.20001 -0.60004,0.60001 -0.79999,1v1.29999c0,1.30002 0.19995,2.30002 0.59998,3s0.90002,1.10001 1.59998,1.10001c0.60004,0 1.10004,-0.29999 1.40002,-1s0.5,-1.5 0.5,-2.39999c0,-1 -0.20001,-1.70001 -0.5,-2.39999c-0.39996,-0.69998 -0.79999,-1 -1.5,-1z" fill="#FFFFFF"/>
    <path id="svg_794" d="m911.70001,332.39999h-8v-1.29999l3.89996,-5.10001c0.60004,-0.89999 1.10004,-1.60001 1.30005,-2.20001s0.39996,-1.19998 0.39996,-1.69998c0,-0.80002 -0.20001,-1.39999 -0.5,-1.80002c-0.29999,-0.5 -0.79999,-0.69998 -1.29999,-0.69998c-0.70001,0 -1.20001,0.29999 -1.59998,0.79999s-0.5,1.20001 -0.5,2.10001h-1.90002l0,0c0,-1.20001 0.29999,-2.29999 1,-3.10001s1.70001,-1.29999 3,-1.29999c1.20001,0 2.09998,0.39999 2.70001,1.10001s1,1.69998 1,2.89999c0,0.79999 -0.20001,1.60001 -0.60004,2.39999s-1,1.70001 -1.79999,2.70001l-2.70001,3.89999h5.5v1.29999l0.10004,0z" fill="#FFFFFF"/>
   </g>
   <g id="svg_795">
    <path id="svg_796" d="m891.70001,437h-5.29999v5.10001h6.09998v1.5h-8.09998v-14.20001h8v1.5h-6.10004v4.60001h5.29999v1.5l0.10004,0z" fill="#FFFFFF"/>
    <path id="svg_797" d="m894.40002,437.20001l0.70001,-7.79999h6.39996v1.59998h-4.69995l-0.40002,4.20001c0.20001,-0.20001 0.5,-0.5 0.79999,-0.60001c0.29999,-0.19998 0.70001,-0.19998 1.10004,-0.29999c1.09998,0 2,0.39999 2.59998,1.19998c0.59998,0.80002 1,2 1,3.5c0,1.40002 -0.29999,2.60001 -1,3.40002c-0.70001,0.89999 -1.59998,1.29999 -2.90002,1.29999c-1.09998,0 -2,-0.29999 -2.69995,-1c-0.70001,-0.70001 -1.10004,-1.70001 -1.10004,-2.89999l0,0l1.90002,0c0,0.79999 0.20001,1.39999 0.5,1.89999c0.29999,0.39999 0.79999,0.70001 1.39996,0.70001c0.60004,0 1.10004,-0.30002 1.5,-0.90002c0.30005,-0.59998 0.5,-1.39999 0.5,-2.39999c0,-1 -0.19995,-1.69998 -0.5,-2.29999s-0.79999,-0.89999 -1.5,-0.89999c-0.59998,0 -1,0.09998 -1.29999,0.39999s-0.5,0.60001 -0.59998,1.10001l-1.70001,-0.20001z" fill="#FFFFFF"/>
    <path id="svg_798" d="m907.09998,442.29999c0.70001,0 1.29999,-0.29999 1.79999,-1s0.70001,-1.60001 0.70001,-2.89999v-0.70001c-0.29999,0.5 -0.59998,0.80002 -1,1.10001c-0.40002,0.20001 -0.79999,0.39999 -1.29999,0.39999c-1.10004,0 -2,-0.39999 -2.70001,-1.29999c-0.70001,-0.89999 -1,-2.10001 -1,-3.60001c0,-1.5 0.40002,-2.70001 1.09998,-3.60001s1.70001,-1.5 2.80005,-1.5c1.19995,0 2.19995,0.5 3,1.39999s1.09998,2.30002 1.09998,4.10001v3.70001c0,1.69998 -0.40002,3.10001 -1.20001,4c-0.79999,1 -1.89996,1.39999 -3.20001,1.39999c-0.39996,0 -0.79999,-0.10001 -1.29999,-0.20001c-0.39996,-0.09998 -0.89996,-0.19998 -1.20001,-0.39999l0.30005,-1.39999c0.29999,0.20001 0.69995,0.29999 1,0.39999c0.29999,0.10001 0.70001,0.10001 1.09998,0.10001zm0.30005,-4.69998c0.5,0 0.90002,-0.10001 1.29999,-0.39999c0.40002,-0.29999 0.60004,-0.70001 0.79999,-1.10001v-1.69998c0,-1.20001 -0.19995,-2.20001 -0.5,-2.80002s-0.89996,-1 -1.5,-1c-0.59998,0 -1,0.30002 -1.39996,1s-0.60004,1.5 -0.60004,2.5c0,1 0.20001,1.80002 0.5,2.39999c0.29999,0.79999 0.79999,1.10001 1.40002,1.10001z" fill="#FFFFFF"/>
   </g>
   <g id="svg_799">
    <path id="svg_800" d="m891.70001,504.29999h-5.29999v5.10001h6.09998v1.5h-8.09998v-14.19998h8v1.5h-6.10004v4.59998h5.29999v1.5l0.10004,0z" fill="#FFFFFF"/>
    <path id="svg_801" d="m894.40002,504.5l0.70001,-7.79999h6.39996v1.59998h-4.69995l-0.40002,4.20001c0.20001,-0.20001 0.5,-0.5 0.79999,-0.60001c0.29999,-0.19998 0.70001,-0.19998 1.10004,-0.29999c1.09998,0 2,0.39999 2.59998,1.19998c0.59998,0.80002 1,2 1,3.5c0,1.40002 -0.29999,2.60001 -1,3.40002c-0.70001,0.89999 -1.59998,1.29999 -2.90002,1.29999c-1.09998,0 -2,-0.29999 -2.69995,-1c-0.70001,-0.70001 -1.10004,-1.70001 -1.10004,-2.89999l0,0l1.90002,0c0,0.79999 0.20001,1.39999 0.5,1.89999c0.29999,0.39999 0.79999,0.70001 1.39996,0.70001c0.60004,0 1.10004,-0.30002 1.5,-0.90002c0.30005,-0.59998 0.5,-1.39999 0.5,-2.39999c0,-1 -0.19995,-1.69998 -0.5,-2.29999s-0.79999,-0.89999 -1.5,-0.89999c-0.59998,0 -1,0.09998 -1.29999,0.39999s-0.5,0.60001 -0.59998,1.10001l-1.70001,-0.20001z" fill="#FFFFFF"/>
    <path id="svg_802" d="m911.40002,500.39999c0,0.69998 -0.20001,1.39999 -0.5,2c-0.40002,0.60001 -0.79999,1 -1.5,1.29999c0.70001,0.30002 1.29999,0.70001 1.70001,1.39999c0.39996,0.60001 0.59998,1.30002 0.59998,2.10001c0,1.30002 -0.39996,2.30002 -1.09998,3s-1.70001,1 -2.90002,1c-1.20001,0 -2.20001,-0.29999 -2.89996,-1s-1.10004,-1.69998 -1.10004,-3c0,-0.79999 0.20001,-1.5 0.60004,-2.10001c0.39996,-0.59998 1,-1.09998 1.69995,-1.39999c-0.59998,-0.29999 -1.09998,-0.69998 -1.39996,-1.29999c-0.40002,-0.60001 -0.5,-1.20001 -0.5,-2c0,-1.20001 0.29999,-2.20001 1,-2.89999s1.59998,-1 2.70001,-1c1.09998,0 2,0.29999 2.69995,1s0.90002,1.70001 0.90002,2.89999zm-1.70001,6.60001c0,-0.79999 -0.20001,-1.39999 -0.59998,-1.89999c-0.40002,-0.5 -0.90002,-0.70001 -1.5,-0.70001c-0.60004,0 -1.10004,0.20001 -1.5,0.70001s-0.60004,1.10001 -0.60004,1.89999c0,0.79999 0.20001,1.5 0.60004,1.89999s0.89996,0.70001 1.5,0.70001c0.59998,0 1.09998,-0.20001 1.5,-0.70001c0.39996,-0.39999 0.59998,-1.10001 0.59998,-1.89999zm-0.29999,-6.60001c0,-0.70001 -0.20001,-1.30002 -0.5,-1.80002c-0.29999,-0.5 -0.70001,-0.69998 -1.20001,-0.69998c-0.5,0 -0.89996,0.19998 -1.20001,0.69998s-0.5,1 -0.5,1.80002c0,0.69998 0.20001,1.29999 0.5,1.79999c0.30005,0.39999 0.70001,0.70001 1.30005,0.70001c0.5,0 0.89996,-0.20001 1.19995,-0.70001c0.20001,-0.39999 0.40002,-0.99997 0.40002,-1.79999z" fill="#FFFFFF"/>
   </g>
   <g id="svg_803">
    <path id="svg_804" d="m823.40002,577.29999h-5.30005v5.10004h6.10004v1.5h-8.10004v-14.20001h8v1.5h-6.09998v4.59998h5.29999v1.5l0.10004,0z" fill="#FFFFFF"/>
    <path id="svg_805" d="m826,577.5l0.70001,-7.79999h6.39996v1.59998h-4.69995l-0.40002,4.20001c0.20001,-0.20001 0.5,-0.5 0.79999,-0.59998c0.29999,-0.20001 0.70001,-0.20001 1.10004,-0.30005c1.09998,0 2,0.40002 2.59998,1.20001c0.59998,0.79999 1,2 1,3.5c0,1.40002 -0.29999,2.60004 -1,3.40002c-0.70001,0.89996 -1.59998,1.29999 -2.90002,1.29999c-1.09998,0 -2,-0.29999 -2.69995,-1c-0.70001,-0.70001 -1.10004,-1.70001 -1.10004,-2.90002l0,0l1.90002,0c0,0.80005 0.20001,1.40002 0.5,1.90002c0.29999,0.40002 0.79999,0.70001 1.39996,0.70001c0.60004,0 1.10004,-0.29999 1.5,-0.90002c0.30005,-0.59998 0.5,-1.39996 0.5,-2.39996c0,-1 -0.19995,-1.70001 -0.5,-2.30005s-0.79999,-0.89996 -1.5,-0.89996c-0.59998,0 -1,0.09998 -1.29999,0.39996s-0.5,0.60004 -0.59998,1.10004l-1.70001,-0.20001z" fill="#FFFFFF"/>
    <path id="svg_806" d="m835.79999,577.5l0.70001,-7.79999h6.39996v1.59998h-4.69995l-0.40002,4.20001c0.20001,-0.20001 0.5,-0.5 0.79999,-0.59998c0.29999,-0.20001 0.70001,-0.20001 1.10004,-0.30005c1.09998,0 2,0.40002 2.59998,1.20001c0.59998,0.79999 1,2 1,3.5c0,1.40002 -0.29999,2.60004 -1,3.40002c-0.70001,0.89996 -1.59998,1.29999 -2.90002,1.29999c-1.09998,0 -2,-0.29999 -2.69995,-1c-0.70001,-0.70001 -1.10004,-1.70001 -1.10004,-2.90002l0,0l1.90002,0c0,0.80005 0.20001,1.40002 0.5,1.90002c0.29999,0.40002 0.79999,0.70001 1.39996,0.70001c0.60004,0 1.10004,-0.29999 1.5,-0.90002c0.30005,-0.59998 0.5,-1.39996 0.5,-2.39996c0,-1 -0.19995,-1.70001 -0.5,-2.30005s-0.79999,-0.89996 -1.5,-0.89996c-0.59998,0 -1,0.09998 -1.29999,0.39996s-0.5,0.60004 -0.59998,1.10004l-1.70001,-0.20001z" fill="#FFFFFF"/>
   </g>
   <g id="svg_807">
    <path id="svg_808" d="m747.59998,577.29999h-5.29999v5.10004h6.10004v1.5h-8.10004v-14.20001h8v1.5h-6.09998v4.59998h5.29999v1.5l0.09998,0z" fill="#FFFFFF"/>
    <path id="svg_809" d="m750.29999,577.5l0.70001,-7.79999h6.39996v1.59998h-4.69995l-0.40002,4.20001c0.20001,-0.20001 0.5,-0.5 0.79999,-0.59998c0.29999,-0.20001 0.70001,-0.20001 1.10004,-0.30005c1.09998,0 2,0.40002 2.59998,1.20001c0.59998,0.79999 1,2 1,3.5c0,1.40002 -0.29999,2.60004 -1,3.40002c-0.70001,0.89996 -1.59998,1.29999 -2.90002,1.29999c-1.09998,0 -2,-0.29999 -2.69995,-1c-0.70001,-0.70001 -1.10004,-1.70001 -1.10004,-2.90002l0,0l1.90002,0c0,0.80005 0.20001,1.40002 0.5,1.90002c0.29999,0.40002 0.79999,0.70001 1.39996,0.70001c0.60004,0 1.10004,-0.29999 1.5,-0.90002c0.30005,-0.59998 0.5,-1.39996 0.5,-2.39996c0,-1 -0.19995,-1.70001 -0.5,-2.30005s-0.79999,-0.89996 -1.5,-0.89996c-0.59998,0 -1,0.09998 -1.29999,0.39996s-0.5,0.60004 -0.59998,1.10004l-1.70001,-0.20001z" fill="#FFFFFF"/>
    <path id="svg_810" d="m764.79999,583.90002h-2v-12.30005l-2.79999,0.20001v-1.29999l4.79999,-0.90002v14.30005l0,0z" fill="#FFFFFF"/>
   </g>
   <g id="svg_811">
    <path id="svg_812" d="m639.70001,566.90002h-5.29999v5.09998h6.09998v1.5h-8.09998v-14.20001h8v1.5h-6.10004v4.60004h5.29999v1.5l0.10004,0z" fill="#FFFFFF"/>
    <path id="svg_813" d="m648.70001,568.70001h1.5v1.5h-1.5v3.29999h-2v-3.29999h-5.20001l-0.09998,-1.10004l5.19995,-9.79999h2v9.40002l0.10004,0zm-5.20001,0h3.29999v-6.5l-0.09998,0l-0.20001,0.39996l-3,6.10004z" fill="#FFFFFF"/>
    <path id="svg_814" d="m659.29999,563.09998c0,0.70001 -0.20001,1.40002 -0.5,2c-0.40002,0.59998 -0.79999,1 -1.5,1.29999c0.70001,0.29999 1.29999,0.70001 1.70001,1.40002c0.39996,0.59998 0.59998,1.29999 0.59998,2.09998c0,1.29999 -0.39996,2.29999 -1.09998,3s-1.70001,1 -2.90002,1c-1.20001,0 -2.20001,-0.29999 -2.89996,-1s-1.10004,-1.70001 -1.10004,-3c0,-0.79999 0.20001,-1.5 0.60004,-2.09998c0.39996,-0.60004 1,-1.10004 1.69995,-1.40002c-0.59998,-0.29999 -1.09998,-0.70001 -1.39996,-1.29999c-0.40002,-0.59998 -0.5,-1.20001 -0.5,-2c0,-1.20001 0.29999,-2.20001 1,-2.90002s1.59998,-1 2.70001,-1c1.09998,0 2,0.30005 2.69995,1s0.90002,1.60004 0.90002,2.90002zm-1.59998,6.60004c0,-0.79999 -0.20001,-1.40002 -0.59998,-1.90002c-0.40002,-0.5 -0.90002,-0.69995 -1.5,-0.69995c-0.60004,0 -1.10004,0.19995 -1.5,0.69995s-0.60004,1.10004 -0.60004,1.90002c0,0.79999 0.20001,1.5 0.60004,1.90002s0.89996,0.69995 1.5,0.69995c0.59998,0 1.09998,-0.19995 1.5,-0.69995c0.39996,-0.50006 0.59998,-1.10004 0.59998,-1.90002zm-0.40002,-6.60004c0,-0.70001 -0.20001,-1.29999 -0.5,-1.79999c-0.29999,-0.5 -0.70001,-0.70001 -1.20001,-0.70001c-0.5,0 -0.89996,0.20001 -1.20001,0.70001s-0.5,1 -0.5,1.79999c0,0.70001 0.20001,1.29999 0.5,1.79999c0.30005,0.40002 0.70001,0.70001 1.30005,0.70001c0.5,0 0.89996,-0.20001 1.19995,-0.70001c0.30005,-0.49994 0.40002,-1.09998 0.40002,-1.79999z" fill="#FFFFFF"/>
   </g>
   <g id="svg_815">
    <path id="svg_816" d="m626.20001,467.89999h-5.29999v5.10001h6.09998v1.5h-8.09998v-14.20001h8v1.5h-6.10004v4.60001h5.29999v1.5l0.10004,0z" fill="#FFFFFF"/>
    <path id="svg_817" d="m635.20001,469.70001h1.5v1.5h-1.5v3.29999h-2v-3.29999h-5.20001l-0.09998,-1.10001l5.19995,-9.80002h2v9.40002l0.10004,0zm-5.20001,0h3.29999v-6.5l-0.09998,0l-0.20001,0.39999l-3,6.10001z" fill="#FFFFFF"/>
    <path id="svg_818" d="m646.20001,474.60001h-8v-1.30002l3.89996,-5.09998c0.60004,-0.90002 1.10004,-1.60001 1.30005,-2.20001s0.39996,-1.20001 0.39996,-1.70001c0,-0.79999 -0.20001,-1.39999 -0.5,-1.79999c-0.29999,-0.5 -0.79999,-0.70001 -1.29999,-0.70001c-0.70001,0 -1.20001,0.30002 -1.59998,0.80002s-0.5,1.19998 -0.5,2.10001h-1.90002l0,0c0,-1.20001 0.29999,-2.30002 1,-3.10001c0.70001,-0.80002 1.70001,-1.30002 3,-1.30002c1.20001,0 2.09998,0.40002 2.70001,1.10001s1,1.70001 1,2.89999c0,0.80002 -0.20001,1.60001 -0.60004,2.40002s-1,1.69998 -1.79999,2.69998l-2.70001,3.89999h5.5v1.30002l0.10004,0z" fill="#FFFFFF"/>
   </g>
   <g id="svg_819">
    <path id="svg_820" d="m514.70001,467.89999h-5.30002v5.10001h6.10001v1.5h-8.10001v-14.20001h8.00003v1.5h-6.10004v4.60001h5.29999v1.5l0.10004,0z" fill="#FFFFFF"/>
    <path id="svg_821" d="m523.70001,469.70001h1.5v1.5h-1.5v3.29999h-2v-3.29999h-5.20001l-0.09998,-1.10001l5.19995,-9.80002h2v9.40002l0.10004,0zm-5.20001,0h3.29999v-6.5l-0.09998,0l-0.20001,0.39999l-3,6.10001z" fill="#FFFFFF"/>
    <path id="svg_822" d="m531.40002,460.10001c0.40002,0 0.79999,0.10001 1.20001,0.20001c0.39996,0.10001 0.79999,0.29999 1.09998,0.39999l-0.39996,1.5c-0.30005,-0.20001 -0.60004,-0.29999 -0.90002,-0.39999c-0.29999,-0.10001 -0.59998,-0.10001 -1,-0.10001c-0.79999,0 -1.40002,0.39999 -1.90002,1.10001c-0.5,0.79999 -0.69995,1.79999 -0.69995,3.10001v0.39999c0.29999,-0.39999 0.69995,-0.70001 1.19995,-0.89999s0.90002,-0.30002 1.5,-0.30002c1.10004,0 1.90002,0.39999 2.5,1.30002c0.60004,0.89999 0.90002,2 0.90002,3.39999c0,1.39999 -0.40002,2.60001 -1.09998,3.5c-0.70001,0.89999 -1.70001,1.39999 -2.80005,1.39999c-1.19995,0 -2.19995,-0.5 -3,-1.5s-1.19995,-2.39999 -1.19995,-4.20001v-3c0,-1.79999 0.39996,-3.20001 1.29999,-4.29999c0.89996,-1 1.99994,-1.60001 3.29999,-1.60001zm-0.5,6.5c-0.5,0 -0.90002,0.10001 -1.29999,0.39999c-0.40002,0.20001 -0.60004,0.60001 -0.79999,1v1.30002c0,1.29999 0.19995,2.29999 0.59998,3c0.40002,0.69998 0.90002,1.10001 1.59998,1.10001c0.60004,0 1.10004,-0.30002 1.40002,-1c0.29999,-0.70001 0.5,-1.5 0.5,-2.40002c0,-1 -0.20001,-1.69998 -0.5,-2.39999c-0.40002,-0.70001 -0.90002,-1 -1.5,-1z" fill="#FFFFFF"/>
   </g>
   <g id="svg_823">
    <path id="svg_824" d="m499.89999,566.90002h-5.29999v5.09998h6.10001v1.5h-8.10001v-14.20001h8v1.5h-6.10001v4.60004h5.29999v1.5l0.10001,0z" fill="#FFFFFF"/>
    <path id="svg_825" d="m504.5,565.59998h1.39999c0.70001,0 1.10001,-0.19995 1.39999,-0.69995s0.5,-1 0.5,-1.80005c0,-0.79999 -0.19998,-1.39996 -0.5,-1.79999c-0.29999,-0.39996 -0.79999,-0.70001 -1.39999,-0.70001c-0.60001,0 -1,0.20001 -1.39999,0.70001c-0.39999,0.40002 -0.5,1 -0.5,1.70001h-1.89999l0,-0.09998c0,-1.10004 0.29999,-2 1,-2.80005c0.69998,-0.69995 1.60001,-1.09998 2.69998,-1.09998c1.20001,0 2.10001,0.29999 2.80002,1.09998c0.69998,0.70001 1.10001,1.70001 1.10001,3c0,0.60004 -0.20001,1.20001 -0.5,1.80005c-0.30002,0.59998 -0.80002,1 -1.40002,1.29999c0.70001,0.29999 1.20001,0.70001 1.60001,1.29999c0.30002,0.59998 0.5,1.29999 0.5,2.09998c0,1.30005 -0.39999,2.30005 -1.10001,3c-0.79999,0.70001 -1.69998,1.10004 -2.89999,1.10004c-1.10001,0 -2,-0.40002 -2.79999,-1c-0.80002,-0.70001 -1.10001,-1.70001 -1.10001,-2.90002l0,-0.09998h1.89999c0,0.70001 0.20001,1.39996 0.60001,1.79999s0.89999,0.70001 1.5,0.70001c0.60001,0 1.10001,-0.20001 1.5,-0.70001c0.39999,-0.5 0.5,-1.09998 0.5,-1.90002c0,-0.89996 -0.20001,-1.5 -0.5,-2c-0.29999,-0.39996 -0.89999,-0.59998 -1.60001,-0.59998h-1.39999v-1.40002l0,0z" fill="#FFFFFF"/>
    <path id="svg_826" d="m515.29999,572.29999c0.70001,0 1.29999,-0.29999 1.79999,-1s0.70001,-1.59998 0.70001,-2.90002v-0.69995c-0.29999,0.5 -0.59998,0.79999 -1,1.09998c-0.40002,0.20001 -0.79999,0.40002 -1.29999,0.40002c-1.10004,0 -2,-0.40002 -2.70001,-1.30005c-0.70001,-0.89996 -1,-2.09998 -1,-3.59998c0,-1.5 0.40002,-2.70001 1.09998,-3.59998s1.70001,-1.5 2.80005,-1.5c1.19995,0 2.19995,0.5 3,1.39996s1.09998,2.29999 1.09998,4.10004v3.69995c0,1.70001 -0.40002,3.10004 -1.20001,4c-0.79999,1 -1.89996,1.40002 -3.20001,1.40002c-0.39996,0 -0.79999,-0.09998 -1.29999,-0.20001c-0.39996,-0.09998 -0.89996,-0.20001 -1.20001,-0.39996l0.30005,-1.40002c0.29999,0.20001 0.69995,0.29999 1,0.40002c0.29999,0 0.70001,0.09998 1.09998,0.09998zm0.29999,-4.70001c0.5,0 0.90002,-0.09998 1.29999,-0.40002c0.40002,-0.29999 0.60004,-0.69995 0.79999,-1.09998v-1.70001c0,-1.20001 -0.19995,-2.20001 -0.5,-2.79999s-0.89996,-1 -1.5,-1c-0.59998,0 -1,0.29999 -1.39996,1s-0.60004,1.5 -0.60004,2.5c0,1 0.20001,1.79999 0.5,2.40002c0.40002,0.79999 0.80005,1.09998 1.40002,1.09998z" fill="#FFFFFF"/>
   </g>
   <g id="svg_827">
    <path id="svg_828" d="m263.20001,578.40002h-5.30002v5.09998h6.10001v1.5h-8.10001v-14.20001h8v1.5h-6.10001v4.60004h5.30002v1.5l0.10001,0z" fill="#FFFFFF"/>
    <path id="svg_829" d="m267.79999,577.09998h1.40002c0.69998,0 1.09998,-0.19995 1.39999,-0.69995s0.5,-1 0.5,-1.80005c0,-0.79999 -0.20001,-1.39996 -0.5,-1.79999c-0.30002,-0.39996 -0.80002,-0.70001 -1.39999,-0.70001c-0.60001,0 -1,0.20001 -1.40002,0.70001c-0.39999,0.40002 -0.5,1 -0.5,1.70001h-1.89999l0,-0.09998c0,-1.10004 0.30002,-2 1,-2.80005c0.70001,-0.69995 1.60001,-1.09998 2.70001,-1.09998c1.19998,0 2.10001,0.29999 2.79999,1.09998c0.70001,0.70001 1.10001,1.70001 1.10001,3c0,0.60004 -0.20001,1.20001 -0.5,1.80005c-0.29999,0.59998 -0.79999,1 -1.39999,1.29999c0.69998,0.29999 1.19998,0.70001 1.60001,1.29999c0.29999,0.59998 0.5,1.29999 0.5,2.09998c0,1.30005 -0.40002,2.30005 -1.10001,3c-0.80002,0.70001 -1.70001,1.10004 -2.89999,1.10004c-1.10001,0 -2,-0.40002 -2.80002,-1c-0.79999,-0.70001 -1.10001,-1.70001 -1.10001,-2.90002l0,-0.09998h1.90002c0,0.70001 0.19998,1.39996 0.59998,1.79999s0.90002,0.70001 1.5,0.70001c0.60001,0 1.10001,-0.20001 1.5,-0.70001c0.40002,-0.5 0.5,-1.09998 0.5,-1.90002c0,-0.89996 -0.19998,-1.5 -0.5,-2c-0.29999,-0.39996 -0.89999,-0.59998 -1.59998,-0.59998h-1.40002v-1.40002l0,0z" fill="#FFFFFF"/>
    <path id="svg_830" d="m283.10001,579.59998c0,1.80005 -0.39999,3.30005 -1.10001,4.20001c-0.70001,1 -1.70001,1.5 -2.89999,1.5c-1.20001,0 -2.20001,-0.5 -2.89999,-1.5c-0.70001,-1 -1.10001,-2.39996 -1.10001,-4.20001v-3.19995c0,-1.80005 0.39999,-3.20001 1.10001,-4.20001c0.69998,-1 1.69998,-1.5 2.89999,-1.5s2.19998,0.5 2.89999,1.5c0.70001,1 1.10001,2.39996 1.10001,4.20001v3.19995l0,0zm-2,-3.5c0,-1.29999 -0.20001,-2.29999 -0.5,-2.89996c-0.30002,-0.70001 -0.80002,-1 -1.5,-1s-1.10001,0.29999 -1.5,1c-0.30002,0.70001 -0.5,1.59998 -0.5,2.89996v3.80005c0,1.29999 0.19998,2.29999 0.5,2.89996s0.79999,1 1.5,1c0.60001,0 1.10001,-0.29999 1.5,-1s0.5,-1.59998 0.5,-2.89996v-3.80005l0,0z" fill="#FFFFFF"/>
   </g>
   <g id="svg_831">
    <path id="svg_832" d="m810.40002,173.3h-5.30005v5.09999h6.10004v1.5h-8.10004v-14.2h8v1.5h-6.09998v4.60001h5.29999v1.5l0.10004,0z" fill="#FFFFFF"/>
    <path id="svg_833" d="m817.40002,165.5c0.40002,0 0.79999,0.10001 1.20001,0.2s0.79999,0.3 1.09998,0.40001l-0.39996,1.5c-0.30005,-0.20001 -0.60004,-0.3 -0.90002,-0.40001s-0.59998,-0.09999 -1,-0.09999c-0.79999,0 -1.40002,0.39999 -1.90002,1.09999s-0.69995,1.8 -0.69995,3.10001v0.39999c0.29999,-0.39999 0.69995,-0.7 1.19995,-0.89999s0.90002,-0.3 1.5,-0.3c1.10004,0 1.90002,0.39999 2.5,1.3s0.90002,2 0.90002,3.39999c0,1.40001 -0.40002,2.60001 -1.09998,3.5s-1.70001,1.40001 -2.80005,1.40001c-1.19995,0 -2.19995,-0.5 -3,-1.5s-1.19995,-2.40001 -1.19995,-4.20001v-3.09999c0,-1.8 0.39996,-3.2 1.29999,-4.3s1.89996,-1.5 3.29999,-1.5zm-0.60004,6.39999c-0.5,0 -0.90002,0.09999 -1.29999,0.39999c-0.40002,0.2 -0.60004,0.60001 -0.79999,1v1.3c0,1.3 0.19995,2.3 0.59998,3s0.90002,1.10001 1.59998,1.10001c0.60004,0 1.10004,-0.3 1.40002,-1s0.5,-1.5 0.5,-2.40001c0,-1 -0.20001,-1.7 -0.5,-2.39999c-0.39996,-0.7 -0.89996,-1 -1.5,-1z" fill="#FFFFFF"/>
    <path id="svg_834" d="m830.40002,167.2c-1.40002,1.8 -2.30005,3.5 -2.80005,5.2s-0.89996,3.70001 -1.09998,6.10001l-0.09998,1.39999h-2l0.09998,-1.39999c0.20001,-2.3 0.59998,-4.39999 1.29999,-6.2c0.60004,-1.8 1.5,-3.60001 2.60004,-5.2h-6.40002v-1.5h8.29999v1.59999l0.10004,0z" fill="#FFFFFF"/>
   </g>
   <g id="svg_835">
    <path id="svg_836" d="m835.59998,115.7h-5.29999v5.10001h6.10004v1.5h-8.10004v-14.3h8v1.5h-6.09998v4.6h5.29999v1.6l0.09998,0z" fill="#FFFFFF"/>
    <path id="svg_837" d="m842.59998,107.8c0.40002,0 0.79999,0.1 1.20001,0.2s0.79999,0.3 1.09998,0.4l-0.39996,1.5c-0.30005,-0.2 -0.60004,-0.3 -0.90002,-0.4s-0.59998,-0.1 -1,-0.1c-0.79999,0 -1.40002,0.4 -1.90002,1.1s-0.69995,1.8 -0.69995,3.1v0.4c0.29999,-0.4 0.69995,-0.7 1.19995,-0.9s0.90002,-0.3 1.5,-0.3c1.10004,0 1.90002,0.39999 2.5,1.3s0.90002,2 0.90002,3.4c0,1.4 -0.40002,2.6 -1.09998,3.5s-1.70001,1.4 -2.80005,1.4c-1.19995,0 -2.19995,-0.5 -3,-1.5s-1.19995,-2.4 -1.19995,-4.2v-3.1c0,-1.8 0.39996,-3.2 1.29999,-4.3s2,-1.5 3.29999,-1.5zm-0.59998,6.5c-0.5,0 -0.90002,0.1 -1.29999,0.39999c-0.40002,0.2 -0.60004,0.60001 -0.79999,1v1.3c0,1.3 0.19995,2.3 0.59998,3s0.90002,1.1 1.59998,1.1c0.60004,0 1.10004,-0.3 1.40002,-1s0.5,-1.5 0.5,-2.4c0,-1 -0.20001,-1.7 -0.5,-2.39999c-0.29999,-0.7 -0.79999,-1 -1.5,-1z" fill="#FFFFFF"/>
    <path id="svg_838" d="m855.29999,111.8c0,0.7 -0.20001,1.39999 -0.5,2s-0.79999,1 -1.5,1.3c0.70001,0.3 1.29999,0.7 1.70001,1.4s0.59998,1.3 0.59998,2.1c0,1.3 -0.39996,2.3 -1.09998,3s-1.70001,1 -2.90002,1c-1.20001,0 -2.20001,-0.3 -2.89996,-1s-1.10004,-1.7 -1.10004,-3c0,-0.8 0.20001,-1.5 0.60004,-2.1s1,-1.1 1.69995,-1.4c-0.59998,-0.3 -1.09998,-0.7 -1.39996,-1.3s-0.5,-1.2 -0.5,-2c0,-1.2 0.29999,-2.2 1,-2.9s1.59998,-1 2.70001,-1c1.09998,0 2,0.3 2.69995,1s0.90002,1.6 0.90002,2.9zm-1.70001,6.6c0,-0.8 -0.20001,-1.4 -0.59998,-1.9s-0.90002,-0.7 -1.5,-0.7c-0.60004,0 -1.10004,0.2 -1.5,0.7s-0.60004,1.1 -0.60004,1.9c0,0.8 0.20001,1.5 0.60004,1.9s0.89996,0.7 1.5,0.7c0.59998,0 1.09998,-0.2 1.5,-0.7s0.59998,-1.10001 0.59998,-1.9zm-0.29999,-6.6c0,-0.7 -0.20001,-1.3 -0.5,-1.8s-0.70001,-0.7 -1.20001,-0.7c-0.5,0 -0.89996,0.2 -1.20001,0.7c-0.29999,0.4 -0.5,1 -0.5,1.8c0,0.7 0.20001,1.3 0.5,1.8s0.70001,0.7 1.30005,0.7c0.5,0 0.89996,-0.2 1.19995,-0.7s0.40002,-1.1 0.40002,-1.8z" fill="#FFFFFF"/>
    <path id="svg_839" d="m867.29999,122.3c-0.09998,-0.2 -0.09998,-0.5 -0.20001,-0.7s-0.09998,-0.5 -0.09998,-0.7c-0.29999,0.5 -0.70001,0.9 -1.09998,1.2s-0.90002,0.4 -1.5,0.4c-0.90002,0 -1.60004,-0.3 -2.10004,-0.8s-0.79999,-1.3 -0.79999,-2.3c0,-1 0.29999,-1.8 1,-2.4s1.70001,-0.9 2.90002,-0.9h1.5v-1.1c0,-0.6 -0.10004,-1.1 -0.40002,-1.5c-0.29999,-0.4 -0.70001,-0.5 -1.20001,-0.5c-0.5,0 -0.89996,0.2 -1.09998,0.5c-0.29999,0.3 -0.40002,0.7 -0.40002,1.2l-1.89996,0l0,-0.1c0,-0.8 0.29999,-1.5 1,-2.2c0.69995,-0.6 1.59998,-1 2.59998,-1c1,0 1.90002,0.3 2.5,0.9s1,1.5 1,2.6v4.9c0,0.39999 0,0.8 0.09998,1.2s0.10004,0.8 0.20001,1.1h-2l0,0.2zm-2.39996,-1.3c0.5,0 0.89996,-0.1 1.29999,-0.4c0.39996,-0.3 0.70001,-0.6 0.79999,-1v-2.2h-1.5c-0.59998,0 -1.09998,0.2 -1.40002,0.6c-0.29999,0.4 -0.5,0.9 -0.5,1.4c0,0.5 0.10004,0.9 0.30005,1.2s0.59998,0.4 1,0.4z" fill="#FFFFFF"/>
    <path id="svg_840" d="m871.79999,123.5h-1.59998l4.69995,-15.4h1.60004l-4.70001,15.4z" fill="#FFFFFF"/>
    <path id="svg_841" d="m885.79999,117.9c0,1.4 -0.29999,2.5 -0.89996,3.4s-1.5,1.3 -2.60004,1.3c-0.59998,0 -1,-0.1 -1.5,-0.4s-0.79999,-0.6 -1,-1.1l-0.09998,1.2h-1.70001v-15.3h2v5.8c0.29999,-0.4 0.59998,-0.7 1,-1s0.79999,-0.3 1.40002,-0.3c1.09998,0 2,0.4 2.59998,1.3s0.90002,2.1 0.90002,3.6v1.5l-0.10004,0zm-1.89996,-1.5c0,-1 -0.20001,-1.8 -0.5,-2.5s-0.80005,-0.9 -1.5,-0.9c-0.40002,0 -0.80005,0.1 -1.10004,0.4s-0.59998,0.6 -0.70001,1.1v5.1c0.20001,0.4 0.40002,0.8 0.70001,1s0.70001,0.4 1.10004,0.4c0.69995,0 1.19995,-0.3 1.5,-0.8s0.5,-1.3 0.5,-2.2v-1.6l0,0z" fill="#FFFFFF"/>
   </g>
   <g id="svg_842">
    <path id="svg_843" d="m816.70001,325.79999h-5.29999v5.10001h6.09998v1.5h-8.09998v-14.19998h8v1.5h-6.10004v4.59998h5.29999v1.5l0.10004,0z" fill="#FFFFFF"/>
    <path id="svg_844" d="m823.70001,318c0.40002,0 0.79999,0.10001 1.20001,0.20001s0.79999,0.29999 1.09998,0.39999l-0.39996,1.5c-0.30005,-0.20001 -0.60004,-0.30002 -0.90002,-0.39999s-0.59998,-0.10001 -1,-0.10001c-0.79999,0 -1.40002,0.39999 -1.90002,1.10001s-0.69995,1.79999 -0.69995,3.09998v0.40002c0.29999,-0.40002 0.69995,-0.70001 1.19995,-0.90002s0.90002,-0.29999 1.5,-0.29999c1.10004,0 1.90002,0.39999 2.5,1.29999s0.90002,2 0.90002,3.40002c0,1.39999 -0.40002,2.59998 -1.09998,3.5s-1.70001,1.39999 -2.80005,1.39999c-1.19995,0 -2.19995,-0.5 -3,-1.5s-1.19995,-2.39999 -1.19995,-4.20001v-3.10001c0,-1.79999 0.39996,-3.19998 1.29999,-4.29999s2,-1.5 3.29999,-1.5zm-0.5,6.39999c-0.5,0 -0.90002,0.10001 -1.29999,0.39999c-0.40002,0.20001 -0.60004,0.60001 -0.79999,1v1.29999c0,1.30002 0.19995,2.30002 0.59998,3s0.90002,1.10001 1.59998,1.10001c0.60004,0 1.10004,-0.29999 1.40002,-1s0.5,-1.5 0.5,-2.39999c0,-1 -0.20001,-1.70001 -0.5,-2.39999c-0.40002,-0.69998 -0.90002,-1 -1.5,-1z" fill="#FFFFFF"/>
    <path id="svg_845" d="m831.09998,324.39999h1.40002c0.70001,0 1.09998,-0.19998 1.40002,-0.69998c0.29999,-0.40002 0.5,-1 0.5,-1.80002c0,-0.79999 -0.20001,-1.39999 -0.5,-1.79999c-0.30005,-0.39999 -0.80005,-0.70001 -1.40002,-0.70001c-0.59998,0 -1,0.20001 -1.40002,0.70001c-0.39996,0.39999 -0.5,1 -0.5,1.69998h-1.89996l0,-0.09998c0,-1.10001 0.29999,-2 1,-2.80002s1.59998,-1.10001 2.70001,-1.10001c1.19995,0 2.09998,0.40002 2.79999,1.10001c0.70001,0.70001 1.09998,1.70001 1.09998,3c0,0.60001 -0.20001,1.20001 -0.5,1.80002c-0.29999,0.59998 -0.79999,1 -1.39996,1.29999c0.69995,0.29999 1.19995,0.70001 1.59998,1.29999c0.29999,0.60001 0.5,1.30002 0.5,2.10001c0,1.30002 -0.40002,2.30002 -1.09998,3c-0.80005,0.70001 -1.70001,1.10001 -2.90002,1.10001c-1.09998,0 -2,-0.39999 -2.79999,-1s-1.10004,-1.70001 -1.10004,-2.89999l0,-0.10001h1.90002c0,0.70001 0.20001,1.39999 0.59998,1.79999s0.90002,0.70001 1.5,0.70001c0.60004,0 1.10004,-0.20001 1.5,-0.70001s0.5,-1.09998 0.5,-1.89999c0,-0.89999 -0.19995,-1.5 -0.5,-2c-0.29999,-0.39999 -0.89996,-0.60001 -1.59998,-0.60001h-1.40002v-1.39999l0,0z" fill="#FFFFFF"/>
   </g>
  </g>
 </g>
</svg>